<svg width="20" height="20" viewBox="0 0 20 20" fill="none" xmlns="http://www.w3.org/2000/svg">
<path d="M9.99999 10.0001C10.4583 10.0001 10.8507 9.83689 11.1771 9.5105C11.5035 9.18411 11.6667 8.79175 11.6667 8.33341C11.6667 7.87508 11.5035 7.48272 11.1771 7.15633C10.8507 6.82994 10.4583 6.66675 9.99999 6.66675C9.54166 6.66675 9.1493 6.82994 8.82291 7.15633C8.49652 7.48272 8.33333 7.87508 8.33333 8.33341C8.33333 8.79175 8.49652 9.18411 8.82291 9.5105C9.1493 9.83689 9.54166 10.0001 9.99999 10.0001ZM9.99999 16.1251C11.6944 14.5695 12.9514 13.1563 13.7708 11.8855C14.5903 10.6147 15 9.48619 15 8.50008C15 6.98619 14.5174 5.74661 13.5521 4.78133C12.5868 3.81605 11.4028 3.33341 9.99999 3.33341C8.59722 3.33341 7.41319 3.81605 6.44791 4.78133C5.48263 5.74661 4.99999 6.98619 4.99999 8.50008C4.99999 9.48619 5.40972 10.6147 6.22916 11.8855C7.04861 13.1563 8.30555 14.5695 9.99999 16.1251ZM9.99999 18.3334C7.76388 16.4306 6.09374 14.6633 4.98958 13.0313C3.88541 11.3994 3.33333 9.88897 3.33333 8.50008C3.33333 6.41675 4.00347 4.75703 5.34374 3.52091C6.68402 2.2848 8.23611 1.66675 9.99999 1.66675C11.7639 1.66675 13.316 2.2848 14.6562 3.52091C15.9965 4.75703 16.6667 6.41675 16.6667 8.50008C16.6667 9.88897 16.1146 11.3994 15.0104 13.0313C13.9062 14.6633 12.2361 16.4306 9.99999 18.3334Z" fill="black"/>
</svg>
